<?xml version="1.0" encoding="utf-8"?>
<!-- Generator: Adobe Illustrator 15.0.0, SVG Export Plug-In . SVG Version: 6.00 Build 0)  -->
<!DOCTYPE svg PUBLIC "-//W3C//DTD SVG 1.1//EN" "http://www.w3.org/Graphics/SVG/1.1/DTD/svg11.dtd">
<svg version="1.1" id="Logo_1_" xmlns="http://www.w3.org/2000/svg" xmlns:xlink="http://www.w3.org/1999/xlink" x="0px" y="0px"
	 width="661.229px" height="350px" viewBox="67.284 225 661.229 350" enable-background="new 67.284 225 661.229 350"
	 xml:space="preserve">
<g id="Logo">
	<g>
		<path fill="#00615D" d="M250.14,290.996L67.284,436.501L254.808,575C254.808,575,144.32,470.748,250.14,290.996z"/>
		<g>
			
				<radialGradient id="SVGID_1_" cx="337.342" cy="393.7053" r="29.3791" gradientTransform="matrix(0 -0.8333 -0.8333 0 516.7112 714.1107)" gradientUnits="userSpaceOnUse">
				<stop  offset="0" style="stop-color:#73A79C"/>
				<stop  offset="0.3041" style="stop-color:#70A49A"/>
				<stop  offset="0.4869" style="stop-color:#659D94"/>
				<stop  offset="0.6377" style="stop-color:#52928A"/>
				<stop  offset="0.771" style="stop-color:#32837C"/>
				<stop  offset="0.8917" style="stop-color:#00736D"/>
				<stop  offset="1" style="stop-color:#00615D"/>
			</radialGradient>
			<path fill="url(#SVGID_1_)" d="M199.363,407.185l-5.802-7.1c-9.949,8.101-15.649,20.108-15.649,32.904
				c0,12.827,5.7,24.82,15.649,32.934l5.802-7.121c-7.783-6.357-12.249-15.757-12.249-25.813
				C187.114,422.954,191.58,413.556,199.363,407.185z"/>
			<g>
				
					<radialGradient id="SVGID_2_" cx="337.3376" cy="415.7795" r="44.7765" gradientTransform="matrix(0 -0.8333 -0.8333 0 516.7112 714.1107)" gradientUnits="userSpaceOnUse">
					<stop  offset="0" style="stop-color:#73A79C"/>
					<stop  offset="0.3041" style="stop-color:#70A49A"/>
					<stop  offset="0.4869" style="stop-color:#659D94"/>
					<stop  offset="0.6377" style="stop-color:#52928A"/>
					<stop  offset="0.771" style="stop-color:#32837C"/>
					<stop  offset="0.8917" style="stop-color:#00736D"/>
					<stop  offset="1" style="stop-color:#00615D"/>
				</radialGradient>
				<path fill="url(#SVGID_2_)" d="M164.505,432.99c0-16.915,7.543-32.782,20.667-43.478l-5.813-7.116
					c-15.271,12.462-24.044,30.906-24.044,50.594c0,19.718,8.773,38.159,24.044,50.631l5.813-7.115
					C172.048,465.785,164.505,449.933,164.505,432.99z"/>
				
					<radialGradient id="SVGID_3_" cx="337.3499" cy="437.8538" r="58.4149" gradientTransform="matrix(0 -0.8333 -0.8333 0 516.7112 714.1107)" gradientUnits="userSpaceOnUse">
					<stop  offset="0" style="stop-color:#73A79C"/>
					<stop  offset="0.3041" style="stop-color:#70A49A"/>
					<stop  offset="0.4869" style="stop-color:#659D94"/>
					<stop  offset="0.6377" style="stop-color:#52928A"/>
					<stop  offset="0.771" style="stop-color:#32837C"/>
					<stop  offset="0.8917" style="stop-color:#00736D"/>
					<stop  offset="1" style="stop-color:#00615D"/>
				</radialGradient>
				<path fill="url(#SVGID_3_)" d="M142.399,432.99c0-23.007,10.24-44.564,28.094-59.146l-5.806-7.113
					c-20.007,16.333-31.482,40.498-31.482,66.259c0,25.802,11.476,49.953,31.482,66.275l5.806-7.099
					C152.639,477.571,142.399,456.006,142.399,432.99z"/>
			</g>
		</g>
	</g>
	<g>
		<path fill="#73A79C" d="M67.284,225l130.765,98.272L69.497,423.809C69.497,423.809,144.798,348.737,67.284,225z"/>
		<g>
			
				<radialGradient id="SVGID_4_" cx="-69.5813" cy="12.1511" r="16.0863" gradientTransform="matrix(0 0.8333 0.8333 0 109.5085 382.3849)" gradientUnits="userSpaceOnUse">
				<stop  offset="0" style="stop-color:#E4F0DE"/>
				<stop  offset="0.1796" style="stop-color:#E0EDDB"/>
				<stop  offset="0.3657" style="stop-color:#D6E5D4"/>
				<stop  offset="0.5549" style="stop-color:#C3D8C8"/>
				<stop  offset="0.7461" style="stop-color:#A8C6B7"/>
				<stop  offset="0.9371" style="stop-color:#83AFA3"/>
				<stop  offset="1" style="stop-color:#73A79C"/>
			</radialGradient>
			<path fill="url(#SVGID_4_)" d="M113.763,338.534l3.179,3.894c5.445-4.439,8.562-11.018,8.562-18.021
				c0-7.021-3.116-13.593-8.562-18.029l-3.179,3.902c4.258,3.479,6.701,8.624,6.701,14.126
				C120.464,329.902,118.021,335.046,113.763,338.534z"/>
			<g>
				
					<radialGradient id="SVGID_5_" cx="-69.5881" cy="24.2375" r="24.5164" gradientTransform="matrix(0 0.8333 0.8333 0 109.5085 382.3849)" gradientUnits="userSpaceOnUse">
					<stop  offset="0" style="stop-color:#E4F0DE"/>
					<stop  offset="0.1796" style="stop-color:#E0EDDB"/>
					<stop  offset="0.3657" style="stop-color:#D6E5D4"/>
					<stop  offset="0.5549" style="stop-color:#C3D8C8"/>
					<stop  offset="0.7461" style="stop-color:#A8C6B7"/>
					<stop  offset="0.9371" style="stop-color:#83AFA3"/>
					<stop  offset="1" style="stop-color:#73A79C"/>
				</radialGradient>
				<path fill="url(#SVGID_5_)" d="M132.846,324.406c0,9.264-4.13,17.944-11.314,23.809l3.179,3.894
					c8.364-6.82,13.167-16.922,13.167-27.701c0-10.794-4.802-20.891-13.167-27.723l-3.179,3.9
					C128.717,306.453,132.846,315.132,132.846,324.406z"/>
				
					<radialGradient id="SVGID_6_" cx="-69.5793" cy="36.3191" r="31.9842" gradientTransform="matrix(0 0.8333 0.8333 0 109.5085 382.3849)" gradientUnits="userSpaceOnUse">
					<stop  offset="0" style="stop-color:#E4F0DE"/>
					<stop  offset="0.1796" style="stop-color:#E0EDDB"/>
					<stop  offset="0.3657" style="stop-color:#D6E5D4"/>
					<stop  offset="0.5549" style="stop-color:#C3D8C8"/>
					<stop  offset="0.7461" style="stop-color:#A8C6B7"/>
					<stop  offset="0.9371" style="stop-color:#83AFA3"/>
					<stop  offset="1" style="stop-color:#73A79C"/>
				</radialGradient>
				<path fill="url(#SVGID_6_)" d="M144.947,324.406c0,12.598-5.608,24.399-15.383,32.379l3.181,3.902
					c10.951-8.948,17.236-22.177,17.236-36.281c0-14.126-6.285-27.348-17.236-36.286l-3.181,3.89
					C139.339,300,144.947,311.809,144.947,324.406z"/>
			</g>
		</g>
	</g>
</g>
<g>
	<path fill="#627675" d="M298.067,428.472c1.6-1.8,3.73-2.7,6.399-2.7c2.801,0,5.031,0.9,6.7,2.7c1.666,1.8,3.032,4.233,4.102,7.3
		l31,92.002h-17l-7.601-23.201h-43.201l-7.6,23.201h-6.8l30-92.002C295.132,432.705,296.467,430.271,298.067,428.472z
		 M302.767,447.37c-0.601-1.064-1.436-1.6-2.5-1.6c-1.069,0-1.936,0.5-2.601,1.5c-0.669,1-1.334,2.369-2,4.1l-15.201,47.201h38.602
		l-14.4-46.801C303.998,449.906,303.367,448.44,302.767,447.37z"/>
	<path fill="#627675" d="M358.066,527.773v-98.002h43.399c5.732,0,10.634,0.869,14.701,2.6c4.065,1.734,7.433,3.9,10.101,6.5
		c2.666,2.602,4.631,5.535,5.9,8.802c1.266,3.269,1.899,6.367,1.899,9.301c0,3.6-0.635,6.969-1.899,10.1
		c-1.271,3.135-3.101,5.9-5.5,8.3c-2.4,2.4-5.4,4.271-9.001,5.602c-3.6,1.334-7.733,2-12.399,2l31.4,44.801h-21.802l-34.8-49.601h18
		c6.665,0,11.632-2.066,14.899-6.2c3.267-4.132,4.899-9.132,4.899-15c0-2.667-0.469-5.268-1.399-7.801
		c-0.935-2.531-2.367-4.802-4.3-6.802c-1.935-2-4.335-3.6-7.201-4.8c-2.867-1.2-6.233-1.8-10.1-1.8h-18.8v92.002L358.066,527.773
		L358.066,527.773z"/>
	<path fill="#627675" d="M495.068,429.771c9.199,0,17.2,1.369,24,4.1c6.8,2.734,12.467,6.4,17,11
		c4.531,4.602,7.932,9.869,10.201,15.803c2.266,5.934,3.398,12.1,3.398,18.5c0,5.868-1.134,11.698-3.398,17.5
		c-2.271,5.8-5.67,11.001-10.201,15.601c-4.533,4.6-10.234,8.334-17.1,11.2c-6.869,2.868-14.836,4.3-23.9,4.3h-24.001v39.602
		h-18.001V429.771H495.068z M497.068,521.773c5.6,0,10.5-1.1,14.7-3.3s7.7-5.231,10.5-9.102c2.8-3.864,4.899-8.399,6.3-13.601
		c1.401-5.201,2.1-10.731,2.1-16.6c0-6.4-0.733-12.231-2.198-17.5c-1.47-5.268-3.669-9.833-6.602-13.701
		c-2.935-3.866-6.534-6.866-10.8-9c-4.269-2.132-9.27-3.2-15-3.2h-25.001v86.002L497.068,521.773L497.068,521.773z"/>
	<path fill="#627675" d="M587.869,513.474c5.865,7.534,14.131,11.3,24.802,11.3c4.398,0,8.198-0.4,11.398-1.2s6.001-1.8,8.4-3
		c2.398-1.2,4.5-2.5,6.3-3.898c1.801-1.4,3.5-2.7,5.1-3.9l4.4,4c-1.469,1.469-3.234,3-5.3,4.6c-2.069,1.602-4.5,3.102-7.3,4.5
		c-2.802,1.4-6.101,2.566-9.9,3.5c-3.801,0.933-8.169,1.4-13.1,1.4c-6.4,0-12.701-1.068-18.9-3.2
		c-6.201-2.131-11.734-5.331-16.602-9.6c-4.868-4.266-8.834-9.602-11.899-16.001c-3.069-6.4-4.601-13.933-4.601-22.602
		c0-8.53,1.5-16.03,4.5-22.5c3-6.466,6.966-11.832,11.899-16.101c4.933-4.266,10.566-7.466,16.9-9.6
		c6.332-2.133,12.832-3.2,19.5-3.2c4.801,0,9.031,0.469,12.701,1.398c3.666,0.936,6.864,2.169,9.6,3.7c2.731,1.534,5.066,3.2,7,5
		c1.932,1.8,3.631,3.569,5.1,5.3l-4.198,4.2c-1.734-1.73-3.568-3.398-5.5-5c-1.936-1.6-4.101-3.031-6.5-4.3
		c-2.4-1.266-5.102-2.3-8.102-3.1c-3-0.802-6.435-1.2-10.3-1.2c-4.801,0-9.271,0.898-13.4,2.7c-4.135,1.8-7.77,4.567-10.899,8.3
		c-3.135,3.733-5.568,8.469-7.3,14.201c-1.734,5.733-2.602,12.469-2.602,20.198C579.068,494.572,582,505.942,587.869,513.474z"/>
	<path fill="#627675" d="M689.669,435.771c-3.334,0-5.771,0.834-7.302,2.5c-1.533,1.669-2.299,3.834-2.299,6.5v28.601h37v6h-37
		v32.603c0,3.067,0.799,5.469,2.399,7.2c1.601,1.733,4.331,2.6,8.2,2.6h32.601v6h-46.601c-5.069,0-8.771-1.365-11.102-4.1
		c-2.335-2.731-3.5-6.366-3.5-10.9v-68.202c0-4.398,1.331-7.966,4-10.7c2.665-2.729,6.331-4.1,11-4.1h46.201v6L689.669,435.771
		L689.669,435.771z"/>
</g>
<g>
	<path fill="#00615D" d="M264.442,328.241h7.995v-55.12h12.875v37.91c5.245-10.631,13.028-15.946,23.353-15.946
		c7.041,0,12.356,1.858,15.947,5.574c3.59,3.718,5.386,9.461,5.386,17.231v10.351h11.234c0.28,0,0.421,0.113,0.421,0.337v9.594
		c0,0.28-0.141,0.421-0.421,0.421h-76.791L264.442,328.241L264.442,328.241z M317.165,328.241v-10.603
		c0-4.18-0.961-7.258-2.882-9.236c-1.922-1.978-4.888-2.966-8.898-2.966c-7.742,0-14.433,5.358-20.071,16.074v6.731L317.165,328.241
		L317.165,328.241z"/>
	<path fill="#00615D" d="M375.147,328.241c0.28,0,0.421,0.113,0.421,0.337v9.594c0,0.28-0.141,0.421-0.421,0.421h-34.798
		c-0.28,0-0.42-0.141-0.42-0.421v-9.594c0-0.224,0.141-0.337,0.42-0.337h10.771v-32.314h12.833v32.314H375.147z M357.264,360.136
		c-1.795,0-3.212-0.555-4.25-1.662c-1.039-1.108-1.558-2.616-1.558-4.523c0-1.936,0.513-3.458,1.536-4.564
		c1.024-1.109,2.447-1.662,4.271-1.662c1.738,0,3.119,0.547,4.145,1.641c1.024,1.095,1.536,2.623,1.536,4.586
		c0,1.907-0.526,3.415-1.578,4.523C360.315,359.581,358.947,360.136,357.264,360.136z"/>
	<path fill="#00615D" d="M374.305,338.593c-0.28,0-0.421-0.141-0.421-0.421v-9.594c0-0.224,0.142-0.337,0.421-0.337h10.141v-32.314
		h12.875v15.104c5.245-10.631,13.029-15.946,23.353-15.946c7.042,0,12.356,1.858,15.947,5.574c3.592,3.718,5.387,9.461,5.387,17.231
		v20.702H374.305L374.305,338.593z M429.175,328.241v-10.603c0-4.18-0.961-7.258-2.884-9.236c-1.921-1.978-4.888-2.966-8.897-2.966
		c-7.742,0-14.434,5.358-20.071,16.074v6.731L429.175,328.241L429.175,328.241z M415.33,288.521c-1.795,0-3.212-0.553-4.249-1.662
		c-1.039-1.107-1.558-2.615-1.558-4.522c0-1.937,0.512-3.457,1.536-4.565c1.022-1.107,2.446-1.662,4.271-1.662
		c1.739,0,3.12,0.547,4.146,1.642c1.023,1.094,1.536,2.623,1.536,4.586c0,1.908-0.526,3.416-1.578,4.522
		C418.381,287.968,417.014,288.521,415.33,288.521z"/>
	<path fill="#00615D" d="M534.66,328.241c0.28,0,0.421,0.113,0.421,0.337v9.594c0,0.28-0.141,0.421-0.421,0.421h-26.13
		c-7.967,0-14.151-1.858-18.556-5.575s-6.605-8.899-6.605-15.547c0-4.235,1.011-7.995,3.029-11.277
		c2.02-3.282,4.916-5.813,8.688-7.595c3.772-1.781,8.255-2.672,13.443-2.672h2.398v-4.208h12.96v36.521L534.66,328.241
		L534.66,328.241z M511.056,328.241v-21.964h-2.272c-3.928,0-6.95,0.968-9.066,2.903c-2.118,1.936-3.177,4.727-3.177,8.373
		c0,3.423,1.036,6.059,3.112,7.911c2.076,1.851,5.063,2.776,8.963,2.776H511.056L511.056,328.241z M503.019,286.291
		c-1.768,0-3.17-0.555-4.208-1.662s-1.557-2.615-1.557-4.523c0-1.936,0.512-3.457,1.536-4.564c1.022-1.108,2.433-1.662,4.229-1.662
		c1.768,0,3.156,0.547,4.166,1.641s1.515,2.623,1.515,4.586c0,1.964-0.52,3.486-1.557,4.565
		C506.104,285.751,504.729,286.291,503.019,286.291z M517.661,286.291c-1.767,0-3.17-0.555-4.207-1.662
		c-1.038-1.107-1.558-2.615-1.558-4.523c0-1.936,0.512-3.457,1.536-4.564c1.022-1.108,2.434-1.662,4.229-1.662
		s3.198,0.554,4.208,1.662c1.011,1.107,1.516,2.63,1.516,4.564c0,1.908-0.525,3.416-1.578,4.523
		C520.755,285.737,519.372,286.291,517.661,286.291z"/>
	<path fill="#00615D" d="M533.777,338.593c-0.28,0-0.421-0.141-0.421-0.421v-9.594c0-0.224,0.141-0.337,0.421-0.337h10.141v-55.12
		h12.877v37.91c5.244-10.631,13.028-15.946,23.353-15.946c7.04,0,12.356,1.858,15.947,5.574c3.59,3.718,5.386,9.461,5.386,17.231
		v10.351h11.234c0.279,0,0.421,0.113,0.421,0.337v9.594c0,0.28-0.142,0.421-0.421,0.421H533.777L533.777,338.593z M588.646,328.241
		v-10.603c0-4.18-0.961-7.258-2.882-9.236c-1.922-1.978-4.89-2.966-8.899-2.966c-7.742,0-14.433,5.358-20.069,16.074v6.731
		L588.646,328.241L588.646,328.241z"/>
	<path fill="#00615D" d="M611.83,338.593c-0.279,0-0.421-0.141-0.421-0.421v-9.594c0-0.224,0.142-0.337,0.421-0.337h10.771v-55.12
		h12.834v55.12h11.192c0.279,0,0.421,0.113,0.421,0.337v9.594c0,0.28-0.142,0.421-0.421,0.421H611.83z"/>
	<path fill="#00615D" d="M645.786,338.593c-0.279,0-0.421-0.141-0.421-0.421v-9.594c0-0.224,0.142-0.337,0.421-0.337h10.771v-25.583
		h12.834v25.583h7.321c2.86,0,4.958-0.792,6.289-2.377c1.332-1.584,2-4.116,2-7.595v-15.61h12.834v16.62
		c0,1.403-0.086,2.693-0.254,3.871c1.402,1.88,2.806,3.198,4.208,3.956c1.402,0.757,3.212,1.136,5.429,1.136h5.344v-32.314h12.833
		v42.666H707.47c-4.854,0-9.355-2.16-13.506-6.48c-3.228,4.32-8.023,6.48-14.392,6.48L645.786,338.593L645.786,338.593z"/>
</g>
<g>
	<path fill="#00615D" d="M285.235,390.328c0.114,0,0.171,0.047,0.171,0.138v3.913c0,0.113-0.057,0.171-0.171,0.171h-10.658
		c-3.25,0-5.771-0.759-7.568-2.274c-1.796-1.516-2.693-3.63-2.693-6.341c0-1.729,0.412-3.261,1.234-4.6
		c0.824-1.339,2.006-2.371,3.545-3.099c1.538-0.727,3.366-1.09,5.482-1.09h0.979v-1.716h5.285v14.896L285.235,390.328
		L285.235,390.328z M275.607,390.328v-8.959h-0.927c-1.603,0-2.834,0.396-3.698,1.186c-0.864,0.789-1.296,1.928-1.296,3.415
		c0,1.396,0.423,2.471,1.27,3.227c0.848,0.755,2.065,1.133,3.655,1.133L275.607,390.328L275.607,390.328z M272.329,373.218
		c-0.721,0-1.293-0.227-1.716-0.679c-0.423-0.451-0.635-1.066-0.635-1.845c0-0.789,0.209-1.41,0.626-1.862
		c0.417-0.451,0.993-0.678,1.725-0.678c0.721,0,1.287,0.224,1.699,0.669c0.412,0.446,0.618,1.07,0.618,1.871
		s-0.212,1.422-0.635,1.862C273.588,372.996,273.027,373.218,272.329,373.218z M278.301,373.218c-0.721,0-1.293-0.227-1.716-0.679
		c-0.423-0.451-0.635-1.066-0.635-1.845c0-0.789,0.208-1.41,0.626-1.862c0.417-0.451,0.992-0.678,1.725-0.678
		s1.305,0.227,1.717,0.678c0.412,0.452,0.618,1.073,0.618,1.862c0,0.778-0.215,1.394-0.645,1.845
		C279.563,372.991,278.999,373.218,278.301,373.218z"/>
	<path fill="#00615D" d="M284.875,394.55c-0.113,0-0.172-0.058-0.172-0.171v-3.913c0-0.091,0.059-0.138,0.172-0.138h5.44v-13.181
		h5.233v13.181h5.286c0.114,0,0.172,0.047,0.172,0.138v3.913c0,0.113-0.058,0.171-0.172,0.171H284.875z M289.577,403.337
		c-0.721,0-1.293-0.227-1.716-0.679s-0.635-1.065-0.635-1.845c0-0.79,0.208-1.41,0.626-1.862c0.417-0.451,0.992-0.678,1.725-0.678
		c0.721,0,1.287,0.223,1.699,0.669s0.618,1.07,0.618,1.871s-0.212,1.422-0.636,1.862S290.274,403.337,289.577,403.337z
		 M295.549,403.337c-0.721,0-1.293-0.227-1.716-0.679s-0.635-1.065-0.635-1.845c0-0.79,0.209-1.41,0.626-1.862
		c0.417-0.451,0.993-0.678,1.725-0.678c0.732,0,1.306,0.227,1.717,0.678c0.412,0.452,0.617,1.073,0.617,1.862
		c0,0.778-0.215,1.393-0.644,1.845C296.811,403.111,296.247,403.337,295.549,403.337z"/>
	<path fill="#00615D" d="M300.475,394.55c-0.114,0-0.172-0.058-0.172-0.171v-3.913c0-0.091,0.058-0.138,0.172-0.138h4.393v-13.181
		h5.234v17.402H300.475L300.475,394.55z M307.443,374.127c-0.732,0-1.312-0.227-1.733-0.679c-0.424-0.452-0.635-1.066-0.635-1.845
		c0-0.79,0.208-1.41,0.626-1.862c0.417-0.452,0.998-0.678,1.742-0.678c0.709,0,1.271,0.223,1.689,0.669
		c0.417,0.446,0.626,1.07,0.626,1.871c0,0.778-0.215,1.393-0.644,1.845C308.687,373.902,308.129,374.127,307.443,374.127z"/>
	<path fill="#00615D" d="M322.854,402.993c-1.59,0-2.966-0.123-4.127-0.368c-1.161-0.246-2.28-0.689-3.355-1.33l2.042-3.827
		c0.95,0.492,1.849,0.838,2.694,1.039c0.847,0.2,1.728,0.3,2.643,0.3c1.327,0,2.353-0.363,3.072-1.09
		c0.721-0.728,1.081-1.726,1.081-2.995v-0.171h-3.484c-2.506,0-4.434-0.709-5.784-2.128c-1.35-1.419-2.024-3.438-2.024-6.06
		c0-1.854,0.463-3.48,1.39-4.882c0.928-1.401,2.236-2.474,3.931-3.218c1.692-0.744,3.648-1.116,5.868-1.116h5.338v17.505
		c0,2.666-0.811,4.723-2.429,6.17C328.091,402.271,325.806,402.993,322.854,402.993z M326.904,390.328v-8.959h-1.133
		c-1.499,0-2.668,0.425-3.509,1.271c-0.842,0.847-1.263,2.042-1.263,3.587c0,1.407,0.286,2.443,0.858,3.105
		c0.572,0.664,1.447,0.996,2.625,0.996H326.904L326.904,390.328z"/>
	<path fill="#00615D" d="M352.098,390.328c0.113,0,0.172,0.047,0.172,0.138v3.913c0,0.113-0.059,0.171-0.172,0.171h-4.565v0.565
		c0,2.414-0.667,4.331-2,5.749s-3.115,2.128-5.346,2.128c-1.202,0-2.304-0.144-3.305-0.429c-1.001-0.286-2.057-0.802-3.167-1.545
		l2.111-3.416c0.618,0.389,1.164,0.658,1.639,0.807c0.476,0.149,1.045,0.224,1.708,0.224c0.938,0,1.693-0.357,2.266-1.073
		c0.572-0.715,0.857-1.616,0.857-2.703v-17.711h5.234v13.181h4.567V390.328z"/>
	<path fill="#00615D" d="M351.755,394.55c-0.113,0-0.172-0.058-0.172-0.171v-3.913c0-0.091,0.059-0.138,0.172-0.138h5.44v-13.181
		h5.234v13.181h5.285c0.114,0,0.173,0.047,0.173,0.138v3.913c0,0.113-0.059,0.171-0.173,0.171H351.755z M356.526,374.127
		c-0.721,0-1.293-0.227-1.716-0.679s-0.636-1.066-0.636-1.845c0-0.79,0.209-1.41,0.626-1.862s0.993-0.678,1.726-0.678
		c0.721,0,1.287,0.223,1.699,0.669s0.618,1.07,0.618,1.871s-0.213,1.422-0.636,1.862
		C357.785,373.906,357.224,374.127,356.526,374.127z M362.498,374.127c-0.721,0-1.293-0.227-1.716-0.679s-0.635-1.066-0.635-1.845
		c0-0.79,0.208-1.41,0.626-1.862c0.417-0.452,0.992-0.678,1.725-0.678s1.304,0.226,1.716,0.678s0.618,1.072,0.618,1.862
		c0,0.778-0.214,1.393-0.644,1.845C363.758,373.901,363.196,374.127,362.498,374.127z"/>
	<path fill="#00615D" d="M367.355,394.55c-0.114,0-0.172-0.058-0.172-0.171v-3.913c0-0.091,0.058-0.138,0.172-0.138h13.747v-5.646
		c0-1.418-0.486-2.506-1.459-3.261s-2.352-1.134-4.137-1.134h-5.973v-3.81c1.236-2.62,2.983-4.928,5.243-6.925
		c2.259-1.997,4.883-3.527,7.869-4.591l1.922,4.703c-2.037,0.617-3.942,1.526-5.715,2.729c-1.774,1.201-3.066,2.426-3.879,3.673
		h1.339c6.682,0,10.021,2.649,10.021,7.946v6.316h4.565c0.114,0,0.172,0.046,0.172,0.137v3.913c0,0.113-0.058,0.171-0.172,0.171
		L367.355,394.55L367.355,394.55z"/>
	<path fill="#00615D" d="M390.559,394.55c-0.114,0-0.172-0.058-0.172-0.171v-3.913c0-0.091,0.058-0.138,0.172-0.138h4.393v-22.481
		h5.234v26.704L390.559,394.55L390.559,394.55z"/>
	<path fill="#00615D" d="M405.283,390.328h6.367l-4.531-17.746h5.476l4.188,17.746h0.24c1.167,0,2.021-0.322,2.565-0.97
		c0.543-0.646,0.814-1.679,0.814-3.098v-18.415h5.234v18.827c0,2.392-0.66,4.302-1.981,5.731c-1.321,1.431-3.144,2.146-5.467,2.146
		h-12.905V390.328z M410.209,403.131l2.008-0.325c-0.47-0.229-0.853-0.547-1.149-0.953s-0.446-0.884-0.446-1.433
		c0-0.984,0.351-1.763,1.047-2.334c0.698-0.572,1.643-0.858,2.832-0.858c1.155,0,2.116,0.211,2.883,0.635l-0.702,1.785
		c-0.652-0.309-1.287-0.463-1.905-0.463c-0.503,0-0.909,0.151-1.219,0.455c-0.31,0.303-0.464,0.718-0.464,1.245
		c0,0.697,0.35,1.224,1.048,1.579l0.635-0.104c1.145-0.184,2.094-0.304,2.849-0.36v2.043c-0.835,0.057-2.217,0.199-4.145,0.429
		c-1.928,0.229-3.019,0.378-3.27,0.446L410.209,403.131L410.209,403.131z"/>
	<path fill="#00615D" d="M432.313,367.846h5.234v26.704h-5.234V367.846z"/>
	<path fill="#00615D" d="M462.296,394.55c-2.162,0-3.869-0.629-5.122-1.889c-1.253-1.259-1.881-2.985-1.881-5.183
		c0-0.881,0.104-1.822,0.311-2.823s0.48-1.851,0.823-2.548h4.634c-0.354,1.521-0.532,3.055-0.532,4.599
		c0,1.088,0.304,1.963,0.91,2.626c0.606,0.664,1.407,0.996,2.402,0.996h11.413v-13.181h5.251v17.402H462.296z M464.853,377.131
		c-0.721,0-1.293-0.227-1.716-0.679c-0.424-0.451-0.636-1.066-0.636-1.845c0-0.79,0.209-1.41,0.627-1.862
		c0.417-0.451,0.991-0.678,1.725-0.678c0.721,0,1.287,0.223,1.699,0.669s0.617,1.07,0.617,1.871s-0.211,1.422-0.636,1.862
		C466.111,376.91,465.552,377.131,464.853,377.131z M470.825,377.131c-0.721,0-1.293-0.227-1.717-0.679
		c-0.423-0.451-0.635-1.066-0.635-1.845c0-0.79,0.209-1.41,0.627-1.862c0.417-0.451,0.992-0.678,1.725-0.678
		c0.731,0,1.305,0.227,1.716,0.678c0.412,0.452,0.618,1.072,0.618,1.862c0,0.778-0.215,1.394-0.644,1.845
		C472.087,376.905,471.522,377.131,470.825,377.131z"/>
	<path fill="#00615D" d="M485.07,390.328h6.367l-4.531-17.746h5.476l4.188,17.746h0.24c1.167,0,2.021-0.322,2.565-0.97
		c0.543-0.646,0.814-1.679,0.814-3.098v-18.415h5.234v18.827c0,2.392-0.66,4.302-1.981,5.731c-1.321,1.431-3.144,2.146-5.467,2.146
		H485.07V390.328z"/>
	<path fill="#00615D" d="M521.729,390.328c0.114,0,0.171,0.047,0.171,0.138v3.913c0,0.113-0.057,0.171-0.171,0.171h-9.628v-26.704
		h5.234v22.481L521.729,390.328L521.729,390.328z"/>
	<path fill="#00615D" d="M521.385,394.55c-0.114,0-0.171-0.058-0.171-0.171v-3.913c0-0.091,0.057-0.138,0.171-0.138h4.137v-13.181
		h5.251v6.161c2.14-4.336,5.314-6.504,9.525-6.504c2.871,0,5.039,0.758,6.504,2.273c1.465,1.517,2.197,3.859,2.197,7.028v4.222
		h4.582c0.113,0,0.172,0.046,0.172,0.138v3.913c0,0.113-0.059,0.171-0.172,0.171H521.385L521.385,394.55z M543.765,390.328v-4.324
		c0-1.705-0.394-2.96-1.176-3.768c-0.784-0.807-1.994-1.21-3.631-1.21c-3.157,0-5.887,2.187-8.187,6.556v2.746H543.765z"/>
	<path fill="#00615D" d="M553.22,394.55c-0.114,0-0.171-0.058-0.171-0.171v-3.913c0-0.091,0.057-0.138,0.171-0.138h6.145v-13.181
		h5.234v17.402H553.22L553.22,394.55z M558.935,374.127c-0.721,0-1.293-0.227-1.716-0.679c-0.424-0.452-0.636-1.066-0.636-1.845
		c0-0.79,0.209-1.41,0.627-1.862s0.991-0.678,1.725-0.678c0.721,0,1.287,0.223,1.699,0.669s0.617,1.07,0.617,1.871
		s-0.212,1.422-0.635,1.862C560.193,373.906,559.634,374.127,558.935,374.127z M564.907,374.127c-0.721,0-1.293-0.227-1.716-0.679
		c-0.424-0.452-0.636-1.066-0.636-1.845c0-0.79,0.209-1.41,0.627-1.862c0.417-0.452,0.992-0.678,1.725-0.678
		c0.733,0,1.306,0.226,1.717,0.678s0.617,1.072,0.617,1.862c0,0.778-0.215,1.393-0.644,1.845S565.605,374.127,564.907,374.127z"/>
	<path fill="#00615D" d="M569.164,390.328h6.367L571,372.582h5.476l4.188,17.746h0.24c1.167,0,2.022-0.322,2.566-0.97
		c0.543-0.646,0.813-1.679,0.813-3.098v-18.415h5.234v18.827c0,2.392-0.66,4.302-1.981,5.731c-1.32,1.431-3.144,2.146-5.467,2.146
		h-12.905V390.328L569.164,390.328z"/>
	<path fill="#00615D" d="M596.194,367.846h5.234v26.704h-5.234V367.846z"/>
	<path fill="#00615D" d="M614.713,402.993c-1.592,0-2.968-0.123-4.129-0.368c-1.16-0.246-2.279-0.689-3.354-1.33l2.043-3.827
		c0.949,0.492,1.848,0.838,2.694,1.039c0.847,0.2,1.728,0.3,2.643,0.3c1.327,0,2.353-0.363,3.072-1.09
		c0.721-0.728,1.081-1.726,1.081-2.995v-0.171h-3.483c-2.506,0-4.435-0.709-5.784-2.128s-2.024-3.438-2.024-6.06
		c0-1.854,0.464-3.48,1.391-4.882s2.236-2.474,3.93-3.218c1.694-0.744,3.649-1.116,5.87-1.116h5.337v17.505
		c0,2.666-0.81,4.723-2.429,6.17C619.948,402.271,617.663,402.993,614.713,402.993z M618.762,390.328v-8.959h-1.133
		c-1.499,0-2.669,0.425-3.511,1.271c-0.841,0.847-1.261,2.042-1.261,3.587c0,1.407,0.285,2.443,0.857,3.105
		c0.571,0.663,1.446,0.996,2.626,0.996H618.762L618.762,390.328z"/>
	<path fill="#00615D" d="M640.508,390.328h11.737c-0.479-2.162-1.065-3.909-1.759-5.242c-0.692-1.333-1.573-2.482-2.643-3.45
		c-1.07-0.967-2.377-1.771-3.922-2.411l1.974-4.925c3.089,1.234,5.578,3.146,7.466,5.731c1.889,2.586,3.271,6.019,4.153,10.297
		h4.616c0.113,0,0.172,0.046,0.172,0.138v3.913c0,0.113-0.059,0.171-0.172,0.171h-21.624L640.508,390.328L640.508,390.328z"/>
	<path fill="#00615D" d="M661.77,394.55c-0.114,0-0.171-0.058-0.171-0.171v-3.913c0-0.091,0.057-0.138,0.171-0.138h6.146v-13.181
		h5.233v17.402H661.77L661.77,394.55z M664.602,403.337c-0.721,0-1.293-0.227-1.716-0.679c-0.424-0.452-0.637-1.065-0.637-1.845
		c0-0.79,0.209-1.41,0.628-1.862c0.417-0.451,0.991-0.678,1.725-0.678c0.721,0,1.287,0.223,1.699,0.669s0.616,1.07,0.616,1.871
		s-0.211,1.422-0.635,1.862C665.86,403.116,665.3,403.337,664.602,403.337z M670.574,403.337c-0.721,0-1.293-0.227-1.717-0.679
		c-0.423-0.452-0.635-1.065-0.635-1.845c0-0.79,0.209-1.41,0.627-1.862c0.417-0.451,0.992-0.678,1.725-0.678
		c0.731,0,1.305,0.227,1.716,0.678c0.412,0.452,0.618,1.073,0.618,1.862c0,0.778-0.215,1.393-0.644,1.845
		S671.271,403.337,670.574,403.337z"/>
	<path fill="#00615D" d="M693.108,390.328c0.114,0,0.171,0.047,0.171,0.138v3.913c0,0.113-0.057,0.171-0.171,0.171h-4.565v0.565
		c0,2.414-0.666,4.331-1.998,5.749c-1.334,1.418-3.115,2.128-5.348,2.128c-1.201,0-2.303-0.144-3.304-0.429
		c-1.001-0.286-2.058-0.802-3.166-1.545l2.111-3.416c0.616,0.389,1.163,0.658,1.639,0.807c0.475,0.149,1.044,0.224,1.707,0.224
		c0.938,0,1.692-0.357,2.266-1.073c0.572-0.715,0.858-1.616,0.858-2.703v-17.711h5.233v13.181h4.566V390.328z"/>
	<path fill="#00615D" d="M706.959,390.328c0.113,0,0.172,0.047,0.172,0.138v3.913c0,0.113-0.059,0.171-0.172,0.171h-14.193
		c-0.114,0-0.171-0.058-0.171-0.171v-3.913c0-0.091,0.057-0.138,0.171-0.138h4.394v-13.181h5.234v13.181H706.959z M699.664,403.337
		c-0.731,0-1.311-0.227-1.732-0.679c-0.424-0.452-0.635-1.065-0.635-1.845c0-0.79,0.208-1.41,0.626-1.862
		c0.418-0.451,0.998-0.678,1.741-0.678c0.709,0,1.272,0.223,1.69,0.669s0.626,1.07,0.626,1.871c0,0.778-0.214,1.393-0.644,1.845
		C700.908,403.111,700.351,403.337,699.664,403.337z"/>
	<path fill="#00615D" d="M706.614,394.55c-0.114,0-0.171-0.058-0.171-0.171v-3.913c0-0.091,0.057-0.138,0.171-0.138h4.395v-22.481
		h5.233v26.704L706.614,394.55L706.614,394.55z"/>
	<path fill="#00615D" d="M723.279,367.846h5.234v26.704h-5.234V367.846z"/>
</g>
<rect x="72" y="253" display="none" fill="none" stroke="#E2001A" stroke-miterlimit="10" width="640" height="304"/>
</svg>
